<svg xmlns="http://www.w3.org/2000/svg" width="512" height="512" viewBox="0 0 512 512" fill="none">

  <defs>
    <linearGradient id="gStroke" x1="96" y1="96" x2="416" y2="416" gradientUnits="userSpaceOnUse">
      <stop offset="0" stop-color="#0D9488"/>
      <stop offset="1" stop-color="#F59E0B"/>
    </linearGradient>
    <linearGradient id="gFill" x1="140" y1="140" x2="380" y2="380" gradientUnits="userSpaceOnUse">
      <stop offset="0" stop-color="#14B8A6" stop-opacity="0.28"/>
      <stop offset="1" stop-color="#F59E0B" stop-opacity="0.22"/>
    </linearGradient>
    <filter id="softGlow" x="-30%" y="-30%" width="160%" height="160%">
      <feGaussianBlur stdDeviation="6" result="b"/>
      <feColorMatrix in="b" type="matrix"
        values="1 0 0 0 0
                0 1 0 0 0
                0 0 1 0 0
                0 0 0 0.35 0" result="g"/>
      <feMerge>
        <feMergeNode in="g"/>
        <feMergeNode in="SourceGraphic"/>
      </feMerge>
    </filter>
  </defs>
<path d="M224 106c-44 0-84 16-116 44v120c0 90 62 142 108 168c46-26 108-78 108-168V150c-32-28-72-44-116-44Z" fill="#0B1220" stroke="#0D9488" stroke-width="14" stroke-linejoin="round"/>
<circle cx="216" cy="250" r="18" fill="#0D9488"/><path d="M206 266h20v52h-20z" fill="#0D9488"/>
<path d="M288 106c44 0 84 16 116 44v120c0 90-62 142-108 168c-46-26-108-78-108-168V150c32-28 72-44 116-44Z" fill="#0B1220" stroke="#F59E0B" stroke-width="14" stroke-linejoin="round"/>
<circle cx="296" cy="250" r="18" fill="#F59E0B"/><path d="M286 266h20v52h-20z" fill="#F59E0B"/>
<path d="M248 256h-20c-12 0-22-10-22-22s10-22 22-22h20v44Z" fill="#FBBF24"/>
<path d="M264 212h20c12 0 22 10 22 22s-10 22-22 22h-20v-44Z" fill="#FBBF24"/>
<rect x="248" y="232" width="16" height="48" rx="8" fill="#FBBF24"/>
</svg>