<svg xmlns="http://www.w3.org/2000/svg" width="512" height="512" viewBox="0 0 512 512" fill="none">
<path d="M256 60C206 60 158 78 120 110V240c0 112 78 176 136 208c58-32 136-96 136-208V110C354 78 306 60 256 60Z" fill="none" stroke="currentColor" stroke-width="18" stroke-linejoin="round"/>
<path d="M256 78V438" stroke="currentColor" stroke-opacity="0.65" stroke-width="10" stroke-linecap="round"/>
<path d="M232 160c-34 18-58 54-64 94c-6 40 9 83 51 114" stroke="currentColor" stroke-width="18" stroke-linecap="round" fill="none"/>
<path d="M280 160c34 18 58 54 64 94c6 40-9 83-51 114" stroke="currentColor" stroke-width="18" stroke-linecap="round" fill="none"/>
<circle cx="256" cy="238" r="26" fill="currentColor"/>
<path d="M244 260h24v86h-24z" fill="currentColor"/>
<g stroke="currentColor" stroke-width="10" stroke-linecap="round"><path d="M170 116v-28"/><path d="M210 106v-36"/><path d="M342 116v-28"/></g>
<circle cx="170" cy="78" r="14" fill="currentColor"/><circle cx="210" cy="70" r="12" fill="currentColor"/>
<circle cx="342" cy="78" r="14" fill="currentColor"/><circle cx="380" cy="96" r="10" fill="currentColor"/>
</svg>