<svg xmlns="http://www.w3.org/2000/svg" width="512" height="512" viewBox="0 0 512 512" fill="none">

  <defs>
    <linearGradient id="gStroke" x1="96" y1="96" x2="416" y2="416" gradientUnits="userSpaceOnUse">
      <stop offset="0" stop-color="#0D9488"/>
      <stop offset="1" stop-color="#F59E0B"/>
    </linearGradient>
    <linearGradient id="gFill" x1="140" y1="140" x2="380" y2="380" gradientUnits="userSpaceOnUse">
      <stop offset="0" stop-color="#14B8A6" stop-opacity="0.28"/>
      <stop offset="1" stop-color="#F59E0B" stop-opacity="0.22"/>
    </linearGradient>
    <filter id="softGlow" x="-30%" y="-30%" width="160%" height="160%">
      <feGaussianBlur stdDeviation="6" result="b"/>
      <feColorMatrix in="b" type="matrix"
        values="1 0 0 0 0
                0 1 0 0 0
                0 0 1 0 0
                0 0 0 0.35 0" result="g"/>
      <feMerge>
        <feMergeNode in="g"/>
        <feMergeNode in="SourceGraphic"/>
      </feMerge>
    </filter>
  </defs>
<rect x="92" y="156" width="328" height="220" rx="22" fill="#0B1220" stroke="url(#gStroke)" stroke-width="14"/>
<path d="M110 178l146 114c12 9 28 9 40 0l146-114" stroke="#14B8A6" stroke-width="14" stroke-linecap="round" stroke-linejoin="round" opacity="0.9"/>
<path d="M110 358l122-98" stroke="#0D9488" stroke-width="12" stroke-linecap="round" opacity="0.65"/>
<path d="M402 358l-122-98" stroke="#F59E0B" stroke-width="12" stroke-linecap="round" opacity="0.65"/>
<path d="M256 192c-20 0-38 7-52 18v58c0 54 38 86 52 96c14-10 52-42 52-96v-58c-14-11-32-18-52-18Z" fill="#0F172A" stroke="#FBBF24" stroke-width="10" stroke-linejoin="round"/>
<circle cx="256" cy="244" r="14" fill="#FBBF24"/><path d="M248 256h16v40h-16z" fill="#FBBF24"/>
</svg>